<svg width="58" height="58" viewBox="0 0 58 58" fill="none" xmlns="http://www.w3.org/2000/svg">
<path d="M58 29C58 45.0163 45.0163 58 29 58C12.9837 58 0 45.0163 0 29C0 12.9837 12.9837 0 29 0C45.0163 0 58 12.9837 58 29Z" fill="#13192D"/>
<path d="M54 29C54 42.8071 42.8071 54 29 54C15.1929 54 4 42.8071 4 29C4 15.1929 15.1929 4 29 4C42.8071 4 54 15.1929 54 29Z" fill="#C3D0F8"/>
<path fill-rule="evenodd" clip-rule="evenodd" d="M41.9974 15C34.7973 15.008 28.6818 18.966 24.3173 23H16.0006L15 24V30L15.2942 30.708L17.2773 32.69L17.2793 32.708L25.2839 40.708L25.3019 40.71L27.301 42.708L28.0074 43H34.0109L35.0114 42V33.692C39.0517 29.336 43.008 23.226 43 16L41.9974 15ZM17.0011 25H22.2902C20.6748 26.6949 19.1866 28.5065 17.8376 30.42L17.0011 29.588V25ZM28.4077 41L27.5672 40.154C29.4857 38.8133 31.3017 37.3319 33.0003 35.722V41H28.4077ZM26.1203 38.712L19.2744 31.874C21.2596 29 29.7664 17.71 40.9708 17.032C40.3185 28.256 28.99 36.738 26.1203 38.712ZM21.0034 43V41H17.0011V37H15V43H21.0034ZM34.5071 27.666C34.9492 27.004 35.1101 26.1936 34.9544 25.4131C34.7986 24.6326 34.339 23.9459 33.6767 23.504C33.0143 23.0621 32.2035 22.9014 31.4225 23.057C30.6415 23.2127 29.9544 23.672 29.5123 24.334C29.0702 24.9957 28.9092 25.8059 29.0648 26.5862C29.2203 27.3665 29.6797 28.0531 30.3418 28.495C31.0039 28.9368 31.8145 29.0977 32.5952 28.9423C33.376 28.7868 34.063 28.3277 34.5051 27.666H34.5071Z" fill="#13192D"/>
</svg>
